<?xml version="1.0" standalone="no"?>
<!DOCTYPE svg PUBLIC "-//W3C//DTD SVG 20010904//EN"
 "http://www.w3.org/TR/2001/REC-SVG-20010904/DTD/svg10.dtd">
<svg version="1.0" xmlns="http://www.w3.org/2000/svg"
 width="500.000000pt" height="500.000000pt" viewBox="0 0 500.000000 500.000000"
 preserveAspectRatio="xMidYMid meet">
<metadata>
Created by potrace 1.14, written by Peter Selinger 2001-2017
</metadata>
<g transform="translate(0.000000,500.000000) scale(0.100000,-0.100000)"
fill="#000000" stroke="none">
<path d="M2609 4393 c-138 -28 -272 -114 -434 -278 -102 -104 -116 -120 -188
-215 -23 -30 -44 -57 -47 -60 -3 -3 -37 -52 -75 -110 -39 -58 -72 -107 -75
-110 -3 -3 -11 -16 -19 -30 -8 -14 -45 -77 -81 -140 -89 -154 -123 -216 -183
-335 -27 -55 -51 -101 -52 -102 -1 -2 -37 -7 -81 -13 -80 -11 -126 -18 -178
-27 -44 -7 -196 -58 -252 -84 -296 -138 -463 -394 -463 -712 0 -111 16 -216
43 -292 61 -169 127 -280 238 -400 37 -40 44 -54 37 -68 -6 -9 -8 -17 -5 -17
3 0 -1 -18 -9 -41 -23 -64 -30 -125 -30 -259 0 -107 3 -134 24 -190 73 -197
232 -312 434 -312 203 -1 368 92 487 274 40 61 83 157 100 225 10 41 12 42 68
54 31 7 59 13 62 14 24 4 111 30 135 40 17 7 41 16 55 20 14 4 76 32 139 63
79 38 132 72 173 110 l59 55 27 -25 c15 -14 35 -31 45 -39 10 -8 26 -21 35
-30 33 -30 248 -194 307 -234 33 -22 62 -43 65 -46 17 -20 294 -191 398 -246
136 -71 330 -153 399 -168 10 -2 45 -11 77 -20 65 -17 135 -25 208 -25 97 2
185 31 278 95 34 23 114 124 137 172 60 126 64 358 12 626 -21 106 -61 272
-86 352 -49 157 -97 300 -119 356 -14 35 -27 71 -29 79 -6 25 -110 280 -149
363 -20 43 -36 80 -36 83 0 10 -166 342 -184 369 -12 17 -20 31 -18 33 13 12
-359 614 -425 687 -10 11 -31 38 -47 60 -16 22 -37 47 -45 56 -9 10 -32 36
-51 60 -85 103 -226 233 -323 296 -125 83 -239 110 -358 86z m177 -1388 c31
-66 69 -149 86 -185 17 -36 42 -90 56 -120 13 -30 67 -147 120 -260 52 -113
108 -234 124 -270 17 -36 43 -91 59 -123 15 -31 29 -61 30 -65 0 -4 10 -24 21
-45 10 -21 18 -43 16 -48 -5 -15 -367 231 -513 348 -5 5 -30 24 -55 43 -25 19
-50 39 -56 45 -7 5 -20 17 -31 25 -18 15 -118 97 -158 131 -11 10 -37 33 -59
52 l-38 35 67 129 c66 124 141 257 158 278 4 6 28 43 54 83 26 40 50 71 55 70
5 -2 34 -57 64 -123z"/>
</g>
</svg>
